<svg width="16" height="16" viewBox="0 0 16 16" fill="none" xmlns="http://www.w3.org/2000/svg">
<g clip-path="url(#clip0_4003_7180)">
<path d="M7.02684 10.3268C7.42417 10.7235 7.42417 11.3675 7.02684 11.7648L3.35484 15.4368C2.56284 16.2288 1.26284 16.2035 0.502836 15.3602C-0.209164 14.5695 -0.0978307 13.3315 0.654169 12.5795L4.2475 8.98618C4.64417 8.58951 5.28817 8.58885 5.68484 8.98618L7.02617 10.3275L7.02684 10.3268ZM10.6348 7.33551C11.4768 7.33685 12.3308 7.66951 12.9595 8.29885C13.3335 8.66685 13.8348 8.59618 14.0002 8.48218C15.2128 7.64285 16.0122 6.25351 16.0122 4.66685C16.0122 4.39151 15.9875 4.12218 15.9415 3.86018C15.8508 3.34818 15.2035 3.16618 14.8355 3.53351L13.7375 4.63151C12.9735 5.39551 11.9688 5.51285 11.2942 4.96085C10.5182 4.32618 10.4755 3.17951 11.1668 2.48818L12.4768 1.17818C12.8442 0.810179 12.6642 0.160845 12.1522 0.0701784C11.8902 0.0235117 11.6208 -0.000488281 11.3455 -0.000488281C9.3835 -0.000488281 7.70884 1.21151 7.0195 2.92685C6.8815 3.26951 6.96217 3.66351 7.2235 3.92418L10.6348 7.33485V7.33551ZM12.0168 9.24151C11.5095 8.73418 10.7962 8.57018 10.1475 8.73418L5.33284 3.92018V2.66618C5.33284 2.16485 5.06484 1.70085 4.63017 1.45018L2.3595 0.140845C1.9475 -0.097155 1.42684 -0.0284883 1.09017 0.308178L0.308836 1.08951C-0.0284973 1.42618 -0.097164 1.94751 0.140836 2.35951L1.45084 4.63085C1.7015 5.06551 2.16484 5.33285 2.66617 5.33285H3.91817L8.73417 10.1482C8.57084 10.7962 8.73417 11.5095 9.2415 12.0168L12.6128 15.3522C13.3775 16.1168 14.6982 16.1895 15.4622 15.4242C16.2275 14.6575 16.1308 13.5128 15.4615 12.6495L12.0168 9.24151Z" fill="white"/>
</g>
<defs>
<clipPath id="clip0_4003_7180">
<rect width="16" height="16" fill="white"/>
</clipPath>
</defs>
</svg>
