<svg width="72" height="72" viewBox="0 0 72 72" fill="none" xmlns="http://www.w3.org/2000/svg">
<g clip-path="url(#clip0_756_13336)">
<path d="M18 28.6875C18 29.7105 18.4064 30.6916 19.1297 31.4149C19.8531 32.1383 20.8342 32.5446 21.8571 32.5446C22.8801 32.5446 23.8612 32.1383 24.5846 31.4149C25.3079 30.6916 25.7143 29.7105 25.7143 28.6875C25.7143 27.6645 25.3079 26.6834 24.5846 25.9601C23.8612 25.2367 22.8801 24.8304 21.8571 24.8304C20.8342 24.8304 19.8531 25.2367 19.1297 25.9601C18.4064 26.6834 18 27.6645 18 28.6875ZM46.2857 28.6875C46.2857 29.7105 46.6921 30.6916 47.4154 31.4149C48.1388 32.1383 49.1199 32.5446 50.1429 32.5446C51.1658 32.5446 52.1469 32.1383 52.8703 31.4149C53.5936 30.6916 54 29.7105 54 28.6875C54 27.6645 53.5936 26.6834 52.8703 25.9601C52.1469 25.2367 51.1658 24.8304 50.1429 24.8304C49.1199 24.8304 48.1388 25.2367 47.4154 25.9601C46.6921 26.6834 46.2857 27.6645 46.2857 28.6875ZM36 0C16.1196 0 0 16.1196 0 36C0 55.8804 16.1196 72 36 72C55.8804 72 72 55.8804 72 36C72 16.1196 55.8804 0 36 0ZM57.1339 57.1339C54.3857 59.8821 51.1875 62.0357 47.6277 63.5464C43.9554 65.1054 40.042 65.8929 36 65.8929C31.958 65.8929 28.0446 65.1054 24.3643 63.5464C20.8099 62.0453 17.5812 59.8674 14.858 57.1339C12.1098 54.3857 9.95625 51.1875 8.44554 47.6277C6.89464 43.9554 6.10714 40.042 6.10714 36C6.10714 31.958 6.89464 28.0446 8.45357 24.3643C9.95471 20.8099 12.1326 17.5812 14.8661 14.858C17.6143 12.1098 20.8125 9.95625 24.3723 8.44554C28.0446 6.89464 31.958 6.10714 36 6.10714C40.042 6.10714 43.9554 6.89464 47.6357 8.45357C51.1901 9.95471 54.4188 12.1326 57.142 14.8661C59.8902 17.6143 62.0438 20.8125 63.5545 24.3723C65.1054 28.0446 65.8929 31.958 65.8929 36C65.8929 40.042 65.1054 43.9554 63.5464 47.6357C62.0471 51.1888 59.8689 54.4151 57.1339 57.1339ZM48.2143 37.6875H44.3491C44.0116 37.6875 43.7223 37.9446 43.6982 38.2821C43.3929 42.2598 40.058 45.4018 36 45.4018C31.942 45.4018 28.5991 42.2598 28.3018 38.2821C28.2777 37.9446 27.9884 37.6875 27.6509 37.6875H23.7857C23.6985 37.6874 23.6122 37.705 23.532 37.7393C23.4519 37.7736 23.3795 37.8239 23.3194 37.887C23.2593 37.9501 23.2126 38.0249 23.1822 38.1066C23.1519 38.1884 23.1385 38.2754 23.1429 38.3625C23.4964 45.1366 29.1295 50.5446 36 50.5446C42.8705 50.5446 48.5036 45.1366 48.8571 38.3625C48.8615 38.2754 48.8481 38.1884 48.8178 38.1066C48.7874 38.0249 48.7407 37.9501 48.6806 37.887C48.6205 37.8239 48.5481 37.7736 48.468 37.7393C48.3878 37.705 48.3015 37.6874 48.2143 37.6875Z" fill="#002239"/>
</g>
<defs>
<clipPath id="clip0_756_13336">
<rect width="72" height="72" fill="white"/>
</clipPath>
</defs>
</svg>
