<svg width="20" height="20" viewBox="0 0 20 20" fill="none" xmlns="http://www.w3.org/2000/svg">
<path d="M11.3842 13.4224C11.3506 13.3892 11.3053 13.3706 11.2581 13.3706C11.2109 13.3706 11.1655 13.3892 11.132 13.4224L8.53823 16.0162C7.33733 17.2171 5.31055 17.3443 3.98465 16.0162C2.65653 14.6881 2.78376 12.6635 3.98465 11.4626L6.5784 8.86886C6.6476 8.79967 6.6476 8.68583 6.5784 8.61663L5.69001 7.72824C5.65645 7.695 5.61113 7.67636 5.56389 7.67636C5.51666 7.67636 5.47134 7.695 5.43778 7.72824L2.84403 10.322C0.955636 12.2104 0.955636 15.2662 2.84403 17.1523C4.73242 19.0385 7.78823 19.0407 9.67439 17.1523L12.2681 14.5586C12.3373 14.4894 12.3373 14.3756 12.2681 14.3064L11.3842 13.4224ZM17.1565 2.84208C15.2681 0.953683 12.2123 0.953683 10.3262 2.84208L7.73019 5.43583C7.69696 5.46939 7.67831 5.51471 7.67831 5.56194C7.67831 5.60917 7.69696 5.6545 7.73019 5.68806L8.61635 6.57422C8.68555 6.64342 8.79939 6.64342 8.86858 6.57422L11.4623 3.98047C12.6632 2.77958 14.69 2.65234 16.0159 3.98047C17.344 5.30859 17.2168 7.33315 16.0159 8.53404L13.4222 11.1278C13.3889 11.1614 13.3703 11.2067 13.3703 11.2539C13.3703 11.3011 13.3889 11.3465 13.4222 11.38L14.3105 12.2684C14.3797 12.3376 14.4936 12.3376 14.5628 12.2684L17.1565 9.67467C19.0427 7.78627 19.0427 4.73047 17.1565 2.84208ZM12.19 6.88002C12.1564 6.84679 12.1111 6.82815 12.0639 6.82815C12.0167 6.82815 11.9713 6.84679 11.9378 6.88002L6.88197 11.9336C6.84874 11.9672 6.8301 12.0125 6.8301 12.0597C6.8301 12.1069 6.84874 12.1523 6.88197 12.1858L7.7659 13.0698C7.8351 13.139 7.94894 13.139 8.01814 13.0698L13.0717 8.01618C13.1409 7.94699 13.1409 7.83315 13.0717 7.76395L12.19 6.88002Z" fill="#002239" fill-opacity="0.5"/>
</svg>
