<svg width="36" height="36" viewBox="0 0 36 36" fill="none" xmlns="http://www.w3.org/2000/svg">
<path d="M17.5323 1.87166C18.8877 1.86807 20.2432 1.87366 21.5985 1.88837C24.3707 1.9285 27.6545 1.94554 30.1488 3.30097C33.3225 5.02554 33.9613 8.79872 34.0318 12.0899C34.0483 12.8617 32.9631 13.449 32.3197 12.9452C32.1169 12.7864 31.9492 12.6674 31.8671 12.3947C31.7263 11.8875 31.7746 11.3242 31.7105 10.8028C31.5299 8.76567 31.0975 6.44564 29.1585 5.33103C27.4662 4.35828 25.2167 4.26666 23.3064 4.19116C21.5814 4.13946 19.8556 4.12094 18.1299 4.13556C16.337 4.12055 14.544 4.13887 12.7517 4.19051C11.2931 4.24593 10.0561 4.32307 8.63078 4.64104C5.91164 5.24761 4.80919 7.02579 4.43648 9.63052C4.20264 11.2648 4.16209 12.7938 4.14703 14.4476C4.12867 15.5744 4.12194 16.7014 4.12681 17.8283C4.12103 19.0359 4.12714 20.2435 4.14516 21.4508C4.16123 23.3907 4.19777 25.531 4.6454 27.4188C4.94868 28.7317 5.67226 30.0133 6.8826 30.6897C8.6344 31.6686 11.0177 31.7648 12.9818 31.8251C14.3723 31.8613 15.7632 31.8764 17.1541 31.8704C18.6255 31.8781 20.0971 31.8727 21.5684 31.8541C23.4414 31.8302 25.71 31.7881 27.5144 31.3281C31.0202 30.4276 31.5498 27.6487 31.7574 24.4999C31.7894 24.0142 31.8078 23.5331 31.8245 23.046C31.8588 21.8331 31.8739 20.6197 31.8701 19.4061C31.8702 19.0447 31.8423 17.9673 31.9224 17.6805C31.9692 17.5141 32.055 17.3612 32.1726 17.2345C32.3835 17.0024 32.6403 16.8908 32.9534 16.8802C33.2605 16.8682 33.559 16.9818 33.7803 17.1949C34.035 17.4403 34.1178 17.7204 34.1188 18.0667C34.122 19.2787 34.1174 20.4907 34.1065 21.7025C34.099 22.74 34.061 23.7769 33.993 24.8123C33.8235 27.2238 33.4234 29.7037 31.6825 31.5106C30.008 33.2484 27.7441 33.7384 25.4301 33.9527C24.6534 34.0193 23.8748 34.0649 23.0956 34.089C21.0022 34.1273 18.9081 34.1399 16.8144 34.1269C15.184 34.1413 13.5536 34.1134 11.9247 34.0427C9.28559 33.9028 6.46199 33.5957 4.47015 31.67C2.6599 29.9199 2.22412 27.5061 2.02816 25.0998C1.95915 24.2246 1.918 23.3473 1.90476 22.4695C1.87778 20.397 1.86976 18.3242 1.88073 16.2515C1.88592 14.7672 1.88563 13.2817 1.96866 11.8018C2.11505 9.19186 2.43233 6.42443 4.33661 4.45624C6.02753 2.70857 8.41463 2.23254 10.7455 2.039C11.5351 1.97138 12.3268 1.92977 13.1191 1.91421C14.6076 1.87951 16.0551 1.89553 17.5323 1.87166Z" fill="#080808"/>
<path d="M18.0231 16.3996C18.1829 16.1937 18.4362 15.9638 18.6255 15.7742L19.6233 14.7751L20.5106 13.8871C20.8711 13.5268 21.1467 13.1542 21.6897 13.125C22.0007 13.109 22.305 13.2188 22.5338 13.4298C22.7467 13.6258 22.8696 13.9211 22.8805 14.2084C22.89 14.4324 22.83 14.654 22.7087 14.8427C22.5727 15.0553 22.0643 15.5329 21.8493 15.7481L20.4062 17.1881C20.1485 17.4453 19.8389 17.7402 19.5953 18.0056C19.8078 18.1986 20.0543 18.4583 20.2601 18.6638L21.4422 19.8452L22.1696 20.5724C22.4711 20.8739 22.7968 21.1298 22.8645 21.5749C22.9121 21.8709 22.8385 22.1738 22.6601 22.4149C22.4368 22.7139 22.1686 22.8234 21.8109 22.8725C21.1186 22.8871 20.7634 22.3594 20.3134 21.909L18.8611 20.4544C18.6113 20.2034 18.2532 19.8241 17.9929 19.603C17.7579 19.8181 17.4764 20.1155 17.2456 20.3458L15.7867 21.8023C15.568 22.021 15.0899 22.528 14.867 22.683C14.7097 22.7937 14.5256 22.8602 14.3338 22.8755C14.0357 22.8964 13.7414 22.799 13.5145 22.6044C13.2713 22.3961 13.157 22.152 13.1282 21.8333C13.0695 21.1834 13.5864 20.8041 14.0059 20.3841L15.5633 18.8281C15.8106 18.5818 16.0734 18.3278 16.3149 18.0749C16.3871 17.9991 16.3792 17.9675 16.3026 17.8894C16.0668 17.6493 15.8228 17.4086 15.5846 17.1707L14.1157 15.7037C13.8556 15.4439 13.5149 15.1329 13.2999 14.8466C13.0389 14.4988 13.0918 13.8752 13.3699 13.5456C13.6179 13.2517 13.8421 13.1618 14.2228 13.1201C14.8414 13.1076 15.1945 13.5943 15.5936 13.9936L17.1806 15.5804C17.3497 15.7501 17.8519 16.2741 18.0231 16.3996Z" fill="#080808"/>
</svg>
